<?xml version="1.0" encoding="utf-8" standalone="no"?><!DOCTYPE svg PUBLIC "-//W3C//DTD SVG 1.1//EN" "http://www.w3.org/Graphics/SVG/1.1/DTD/svg11.dtd">
<svg preserveAspectRatio="xMinYMin meet" width="100%" height="100%" viewBox="0 0 141.563 248.438"  version="1.1" xmlns="http://www.w3.org/2000/svg" xmlns:xlink="http://www.w3.org/1999/xlink">
  <desc>Matlab Figure Converted by PLOT2SVG written by Juerg Schwizer</desc>
  <g id="topgroup">
  <rect x="0" y="0" width="141.563" height="248.438" fill="#ffffff" stroke="none" />
  <g id ="ID000000">
  <clipPath id="ID000001">
    <rect x="43.125" y="18.633" width="84.989" height="186.539"/>
  </clipPath>
      <polygon fill="#ffffff" fill-opacity="1.00" stroke="none" stroke-width="0.5pt" stroke-opacity="1.00" stroke-dasharray="none" points="43.125,205.172 128.114,205.172 128.114,18.633 43.125,18.633 "/>
      <polygon fill="#ffffff" fill-opacity="1.00" stroke="none" stroke-width="0.5pt" stroke-opacity="1.00" stroke-dasharray="none" points="43.125,205.172 128.114,205.172 128.114,205.172 43.125,205.172 "/>
      <polygon fill="#ffffff" fill-opacity="1.00" stroke="none" stroke-width="0.5pt" stroke-opacity="1.00" stroke-dasharray="none" points="43.125,205.172 43.125,205.172 43.125,18.633 43.125,18.633 "/>
    <g>
<g id="ID000002" clip-path="url(#ID000001)" >
<g id="ID000003" clip-path="url(#ID000001)" >
      <polyline fill="none" stroke="#000000" stroke-width="0.5pt" stroke-dasharray="8.0,2.0" points="85.620,123.453 85.620,70.995 "/>
<g>
</g>
</g>
<g id="ID000004" clip-path="url(#ID000001)" >
      <polyline fill="none" stroke="#000000" stroke-width="0.5pt" stroke-dasharray="8.0,2.0" points="85.620,205.172 85.620,167.864 "/>
<g>
</g>
</g>
<g id="ID000005" clip-path="url(#ID000001)" >
      <polyline fill="none" stroke="#000000" stroke-width="0.5pt" stroke-dasharray="none" points="82.432,70.995 88.807,70.995 "/>
<g>
</g>
</g>
<g id="ID000006" clip-path="url(#ID000001)" >
      <polyline fill="none" stroke="#000000" stroke-width="0.5pt" stroke-dasharray="none" points="82.432,205.172 88.807,205.172 "/>
<g>
</g>
</g>
<g id="ID000007" clip-path="url(#ID000001)" >
      <polyline fill="none" stroke="#0000ff" stroke-width="0.5pt" stroke-dasharray="none" points="82.432,147.575 79.245,135.954 79.245,123.453 91.994,123.453 91.994,135.954 88.807,147.575 91.994,159.196 91.994,167.864 79.245,167.864 79.245,159.196 82.432,147.575 "/>
<g>
</g>
</g>
<g id="ID000008" clip-path="url(#ID000001)" >
      <polyline fill="none" stroke="#ff0000" stroke-width="0.5pt" stroke-dasharray="none" points="82.432,147.575 88.807,147.575 "/>
<g>
</g>
</g>
<g id="ID000009" clip-path="url(#ID000001)" >
<g>
</g>
</g>
</g><g id="ID000010" >
  <g transform="translate(85.620,231.466)">
    <g transform="rotate(-0.0)">
      <text x="0.000" y="0.000" font-family="Sans" text-anchor="middle" font-size="8pt" fill="#000000" >All subjects</text>
    </g>
  </g>
</g>
<g id="ID000011" >
  <g transform="translate(15.332,112.840)">
    <g transform="rotate(-90.0)">
      <text x="0.000" y="0.000" font-family="Sans" text-anchor="middle" font-size="8pt" fill="#000000" >Accuracy</text>
    </g>
  </g>
</g>
<g id="ID000012" >
</g>
    </g>
    <g>
      <polyline fill="none" stroke="#000000" stroke-width="0.5pt" stroke-dasharray="none" points="43.125,205.172 128.114,205.172 "/>
      <polyline fill="none" stroke="#000000" stroke-width="0.5pt" stroke-dasharray="none" points="43.125,18.633 128.114,18.633 "/>
      <polyline fill="none" stroke="#000000" stroke-width="0.5pt" stroke-dasharray="none" points="43.125,167.864 44.990,167.864 "/>
      <polyline fill="none" stroke="#000000" stroke-width="0.5pt" stroke-dasharray="none" points="43.125,130.556 44.990,130.556 "/>
      <polyline fill="none" stroke="#000000" stroke-width="0.5pt" stroke-dasharray="none" points="43.125,93.248 44.990,93.248 "/>
      <polyline fill="none" stroke="#000000" stroke-width="0.5pt" stroke-dasharray="none" points="43.125,55.941 44.990,55.941 "/>
      <polyline fill="none" stroke="#000000" stroke-width="0.5pt" stroke-dasharray="none" points="43.125,205.172 43.125,18.633 "/>
      <polyline fill="none" stroke="#000000" stroke-width="0.5pt" stroke-dasharray="none" points="128.114,167.864 126.249,167.864 "/>
      <polyline fill="none" stroke="#000000" stroke-width="0.5pt" stroke-dasharray="none" points="128.114,130.556 126.249,130.556 "/>
      <polyline fill="none" stroke="#000000" stroke-width="0.5pt" stroke-dasharray="none" points="128.114,93.248 126.249,93.248 "/>
      <polyline fill="none" stroke="#000000" stroke-width="0.5pt" stroke-dasharray="none" points="128.114,55.941 126.249,55.941 "/>
      <polyline fill="none" stroke="#000000" stroke-width="0.5pt" stroke-dasharray="none" points="128.114,205.172 128.114,18.633 "/>
  <g transform="translate(41.425,208.969)">
    <g transform="rotate(-0.0)">
      <text x="0.000" y="0.000" font-family="Sans" text-anchor="end" font-size="8pt" fill="#000000" >0.5</text>
    </g>
  </g>
  <g transform="translate(41.425,171.661)">
    <g transform="rotate(-0.0)">
      <text x="0.000" y="0.000" font-family="Sans" text-anchor="end" font-size="8pt" fill="#000000" >0.6</text>
    </g>
  </g>
  <g transform="translate(41.425,134.353)">
    <g transform="rotate(-0.0)">
      <text x="0.000" y="0.000" font-family="Sans" text-anchor="end" font-size="8pt" fill="#000000" >0.7</text>
    </g>
  </g>
  <g transform="translate(41.425,97.045)">
    <g transform="rotate(-0.0)">
      <text x="0.000" y="0.000" font-family="Sans" text-anchor="end" font-size="8pt" fill="#000000" >0.8</text>
    </g>
  </g>
  <g transform="translate(41.425,59.737)">
    <g transform="rotate(-0.0)">
      <text x="0.000" y="0.000" font-family="Sans" text-anchor="end" font-size="8pt" fill="#000000" >0.9</text>
    </g>
  </g>
  <g transform="translate(41.425,22.430)">
    <g transform="rotate(-0.0)">
      <text x="0.000" y="0.000" font-family="Sans" text-anchor="end" font-size="8pt" fill="#000000" >1</text>
    </g>
  </g>
      <polyline fill="none" stroke="#000000" stroke-width="0.5pt" stroke-dasharray="none" points="43.125,205.172 43.125,203.306 "/>
      <polyline fill="none" stroke="#000000" stroke-width="0.5pt" stroke-dasharray="none" points="43.125,205.172 43.125,205.172 "/>
    </g>
  </g>
  </g>
</svg>
