<?xml version="1.0" encoding="utf-8" standalone="no"?><!DOCTYPE svg PUBLIC "-//W3C//DTD SVG 1.1//EN" "http://www.w3.org/Graphics/SVG/1.1/DTD/svg11.dtd">
<svg preserveAspectRatio="xMinYMin meet" width="100%" height="100%" viewBox="0 0 177.188 248.438"  version="1.1" xmlns="http://www.w3.org/2000/svg" xmlns:xlink="http://www.w3.org/1999/xlink">
  <desc>Matlab Figure Converted by PLOT2SVG written by Juerg Schwizer</desc>
  <g id="topgroup">
  <rect x="0" y="0" width="177.188" height="248.438" fill="#ffffff" stroke="none" />
  <g id ="ID000000">
  <clipPath id="ID000001">
    <rect x="23.034" y="18.633" width="137.320" height="196.055"/>
  </clipPath>
      <polygon fill="#ffffff" fill-opacity="1.00" stroke="none" stroke-width="0.5pt" stroke-opacity="1.00" stroke-dasharray="none" points="23.034,214.688 160.355,214.688 160.355,18.633 23.034,18.633 "/>
      <polygon fill="#ffffff" fill-opacity="1.00" stroke="none" stroke-width="0.5pt" stroke-opacity="1.00" stroke-dasharray="none" points="23.034,214.688 160.355,214.688 160.355,214.688 23.034,214.688 "/>
      <polygon fill="#ffffff" fill-opacity="1.00" stroke="none" stroke-width="0.5pt" stroke-opacity="1.00" stroke-dasharray="none" points="23.034,214.688 23.034,214.688 23.034,18.633 23.034,18.633 "/>
    <g>
<g id="ID000002" clip-path="url(#ID000001)" >
<g id="ID000003" clip-path="url(#ID000001)" >
      <polygon fill="#cccccc" fill-opacity="1.00" stroke="#000000" stroke-width="0.5pt" stroke-opacity="1.00" stroke-dasharray="none" points="36.766,410.742 36.766,114.011 55.076,114.011 55.076,410.742 "/>
      <polygon fill="#cccccc" fill-opacity="1.00" stroke="#000000" stroke-width="0.5pt" stroke-opacity="1.00" stroke-dasharray="none" points="59.653,410.742 59.653,107.079 77.963,107.079 77.963,410.742 "/>
      <polygon fill="#cccccc" fill-opacity="1.00" stroke="#000000" stroke-width="0.5pt" stroke-opacity="1.00" stroke-dasharray="none" points="82.540,410.742 82.540,88.491 100.849,88.491 100.849,410.742 "/>
      <polygon fill="#cccccc" fill-opacity="1.00" stroke="#000000" stroke-width="0.5pt" stroke-opacity="1.00" stroke-dasharray="none" points="105.427,410.742 105.427,78.957 123.736,78.957 123.736,410.742 "/>
      <polygon fill="#cccccc" fill-opacity="1.00" stroke="#000000" stroke-width="0.5pt" stroke-opacity="1.00" stroke-dasharray="none" points="128.313,410.742 128.313,73.666 146.623,73.666 146.623,410.742 "/>
</g>
</g><g id="ID000004" clip-path="url(#ID000001)" >
      <polyline fill="none" stroke="#000000" stroke-width="0.5pt" stroke-dasharray="none" points="23.034,410.742 160.355,410.742 "/>
<g>
</g>
</g>
<g id="ID000005" clip-path="url(#ID000001)" >
<g id="ID000006" clip-path="url(#ID000001)" >
      <polyline fill="none" stroke="#000000" stroke-width="0.5pt" stroke-dasharray="none" points="45.921,104.917 45.921,123.104 "/>
      <polyline fill="none" stroke="#000000" stroke-width="0.5pt" stroke-dasharray="none" points="45.006,104.917 46.837,104.917 "/>
      <polyline fill="none" stroke="#000000" stroke-width="0.5pt" stroke-dasharray="none" points="45.006,123.104 46.837,123.104 "/>
      <polyline fill="none" stroke="#000000" stroke-width="0.5pt" stroke-dasharray="none" points="68.808,104.614 68.808,109.543 "/>
      <polyline fill="none" stroke="#000000" stroke-width="0.5pt" stroke-dasharray="none" points="67.892,104.614 69.723,104.614 "/>
      <polyline fill="none" stroke="#000000" stroke-width="0.5pt" stroke-dasharray="none" points="67.892,109.543 69.723,109.543 "/>
      <polyline fill="none" stroke="#000000" stroke-width="0.5pt" stroke-dasharray="none" points="91.695,86.767 91.695,90.216 "/>
      <polyline fill="none" stroke="#000000" stroke-width="0.5pt" stroke-dasharray="none" points="90.779,86.767 92.610,86.767 "/>
      <polyline fill="none" stroke="#000000" stroke-width="0.5pt" stroke-dasharray="none" points="90.779,90.216 92.610,90.216 "/>
      <polyline fill="none" stroke="#000000" stroke-width="0.5pt" stroke-dasharray="none" points="114.581,57.192 114.581,100.722 "/>
      <polyline fill="none" stroke="#000000" stroke-width="0.5pt" stroke-dasharray="none" points="113.666,57.192 115.497,57.192 "/>
      <polyline fill="none" stroke="#000000" stroke-width="0.5pt" stroke-dasharray="none" points="113.666,100.722 115.497,100.722 "/>
      <polyline fill="none" stroke="#000000" stroke-width="0.5pt" stroke-dasharray="none" points="137.468,68.887 137.468,78.445 "/>
      <polyline fill="none" stroke="#000000" stroke-width="0.5pt" stroke-dasharray="none" points="136.553,68.887 138.383,68.887 "/>
      <polyline fill="none" stroke="#000000" stroke-width="0.5pt" stroke-dasharray="none" points="136.553,78.445 138.383,78.445 "/>
<g>
</g>
</g>
<g id="ID000007" clip-path="url(#ID000001)" >
<g>
</g>
</g>
</g><g id="ID000008" >
  <g transform="translate(91.224,243.809)">
    <g transform="rotate(-0.0)">
      <text x="0.000" y="0.000" font-family="Sans" text-anchor="middle" font-size="8pt" fill="#000000" >5 best subjects</text>
    </g>
  </g>
</g>
<g id="ID000009" >
</g>
<g id="ID000010" >
</g>
    </g>
    <g>
      <polyline fill="none" stroke="#000000" stroke-width="0.5pt" stroke-dasharray="none" points="45.921,214.688 45.921,212.727 "/>
      <polyline fill="none" stroke="#000000" stroke-width="0.5pt" stroke-dasharray="none" points="68.808,214.688 68.808,212.727 "/>
      <polyline fill="none" stroke="#000000" stroke-width="0.5pt" stroke-dasharray="none" points="91.695,214.688 91.695,212.727 "/>
      <polyline fill="none" stroke="#000000" stroke-width="0.5pt" stroke-dasharray="none" points="114.581,214.688 114.581,212.727 "/>
      <polyline fill="none" stroke="#000000" stroke-width="0.5pt" stroke-dasharray="none" points="137.468,214.688 137.468,212.727 "/>
      <polyline fill="none" stroke="#000000" stroke-width="0.5pt" stroke-dasharray="none" points="23.034,214.688 160.355,214.688 "/>
      <polyline fill="none" stroke="#000000" stroke-width="0.5pt" stroke-dasharray="none" points="45.921,18.633 45.921,20.593 "/>
      <polyline fill="none" stroke="#000000" stroke-width="0.5pt" stroke-dasharray="none" points="68.808,18.633 68.808,20.593 "/>
      <polyline fill="none" stroke="#000000" stroke-width="0.5pt" stroke-dasharray="none" points="91.695,18.633 91.695,20.593 "/>
      <polyline fill="none" stroke="#000000" stroke-width="0.5pt" stroke-dasharray="none" points="114.581,18.633 114.581,20.593 "/>
      <polyline fill="none" stroke="#000000" stroke-width="0.5pt" stroke-dasharray="none" points="137.468,18.633 137.468,20.593 "/>
      <polyline fill="none" stroke="#000000" stroke-width="0.5pt" stroke-dasharray="none" points="23.034,18.633 160.355,18.633 "/>
      <polyline fill="none" stroke="#000000" stroke-width="0.5pt" stroke-dasharray="none" points="23.034,175.477 24.995,175.477 "/>
      <polyline fill="none" stroke="#000000" stroke-width="0.5pt" stroke-dasharray="none" points="23.034,136.266 24.995,136.266 "/>
      <polyline fill="none" stroke="#000000" stroke-width="0.5pt" stroke-dasharray="none" points="23.034,97.055 24.995,97.055 "/>
      <polyline fill="none" stroke="#000000" stroke-width="0.5pt" stroke-dasharray="none" points="23.034,57.844 24.995,57.844 "/>
      <polyline fill="none" stroke="#000000" stroke-width="0.5pt" stroke-dasharray="none" points="23.034,214.688 23.034,18.633 "/>
      <polyline fill="none" stroke="#000000" stroke-width="0.5pt" stroke-dasharray="none" points="160.355,175.477 158.394,175.477 "/>
      <polyline fill="none" stroke="#000000" stroke-width="0.5pt" stroke-dasharray="none" points="160.355,136.266 158.394,136.266 "/>
      <polyline fill="none" stroke="#000000" stroke-width="0.5pt" stroke-dasharray="none" points="160.355,97.055 158.394,97.055 "/>
      <polyline fill="none" stroke="#000000" stroke-width="0.5pt" stroke-dasharray="none" points="160.355,57.844 158.394,57.844 "/>
      <polyline fill="none" stroke="#000000" stroke-width="0.5pt" stroke-dasharray="none" points="160.355,214.688 160.355,18.633 "/>
  <g transform="translate(20.288,218.484)">
    <g transform="rotate(-0.0)">
      <text x="0.000" y="0.000" font-family="Sans" text-anchor="end" font-size="8pt" fill="#000000" >0.5</text>
    </g>
  </g>
  <g transform="translate(20.288,179.273)">
    <g transform="rotate(-0.0)">
      <text x="0.000" y="0.000" font-family="Sans" text-anchor="end" font-size="8pt" fill="#000000" >0.6</text>
    </g>
  </g>
  <g transform="translate(20.288,140.063)">
    <g transform="rotate(-0.0)">
      <text x="0.000" y="0.000" font-family="Sans" text-anchor="end" font-size="8pt" fill="#000000" >0.7</text>
    </g>
  </g>
  <g transform="translate(20.288,100.852)">
    <g transform="rotate(-0.0)">
      <text x="0.000" y="0.000" font-family="Sans" text-anchor="end" font-size="8pt" fill="#000000" >0.8</text>
    </g>
  </g>
  <g transform="translate(20.288,61.641)">
    <g transform="rotate(-0.0)">
      <text x="0.000" y="0.000" font-family="Sans" text-anchor="end" font-size="8pt" fill="#000000" >0.9</text>
    </g>
  </g>
  <g transform="translate(20.288,22.430)">
    <g transform="rotate(-0.0)">
      <text x="0.000" y="0.000" font-family="Sans" text-anchor="end" font-size="8pt" fill="#000000" >1</text>
    </g>
  </g>
      <polyline fill="none" stroke="#000000" stroke-width="0.5pt" stroke-dasharray="none" points="23.034,214.688 23.034,212.727 "/>
      <polyline fill="none" stroke="#000000" stroke-width="0.5pt" stroke-dasharray="none" points="23.034,214.688 23.034,214.688 "/>
    </g>
  </g>
  </g>
</svg>
