<?xml version="1.0" encoding="utf-8" standalone="no"?><!DOCTYPE svg PUBLIC "-//W3C//DTD SVG 1.1//EN" "http://www.w3.org/Graphics/SVG/1.1/DTD/svg11.dtd">
<svg preserveAspectRatio="xMinYMin meet" width="100%" height="100%" viewBox="0 0 247.500 248.438"  version="1.1" xmlns="http://www.w3.org/2000/svg" xmlns:xlink="http://www.w3.org/1999/xlink">
  <desc>Matlab Figure Converted by PLOT2SVG written by Juerg Schwizer</desc>
  <g id="topgroup">
  <rect x="0" y="0" width="247.500" height="248.438" fill="#ffffff" stroke="none" />
  <g id ="ID000000">
  <clipPath id="ID000001">
    <rect x="43.125" y="18.633" width="180.863" height="196.055"/>
  </clipPath>
      <polygon fill="#ffffff" fill-opacity="1.00" stroke="none" stroke-width="0.5pt" stroke-opacity="1.00" stroke-dasharray="none" points="43.125,214.688 223.988,214.688 223.988,18.633 43.125,18.633 "/>
      <polygon fill="#ffffff" fill-opacity="1.00" stroke="none" stroke-width="0.5pt" stroke-opacity="1.00" stroke-dasharray="none" points="43.125,18.633 223.988,18.633 223.988,18.633 43.125,18.633 "/>
      <polygon fill="#ffffff" fill-opacity="1.00" stroke="none" stroke-width="0.5pt" stroke-opacity="1.00" stroke-dasharray="none" points="43.125,214.688 43.125,214.687 43.125,18.633 43.125,18.633 "/>
    <g>
<g id="ID000002" clip-path="url(#ID000001)" >
<g>
<circle cx="223.988" cy="18.633" r="1.000" fill="#000000" stroke="none" stroke-width="0.5pt" />
<circle cx="213.593" cy="20.886" r="1.000" fill="#000000" stroke="none" stroke-width="0.5pt" />
<circle cx="95.097" cy="32.154" r="1.000" fill="#000000" stroke="none" stroke-width="0.5pt" />
<circle cx="45.204" cy="144.829" r="1.000" fill="#000000" stroke="none" stroke-width="0.5pt" />
<circle cx="43.125" cy="214.688" r="1.000" fill="#000000" stroke="none" stroke-width="0.5pt" />
<circle cx="223.988" cy="18.633" r="1.000" fill="#000000" stroke="none" stroke-width="0.5pt" />
<circle cx="103.413" cy="67.646" r="1.000" fill="#000000" stroke="none" stroke-width="0.5pt" />
<circle cx="43.125" cy="214.688" r="1.000" fill="#000000" stroke="none" stroke-width="0.5pt" />
<circle cx="223.988" cy="18.633" r="1.000" fill="#000000" stroke="none" stroke-width="0.5pt" />
<circle cx="119.546" cy="123.195" r="1.000" fill="#000000" stroke="none" stroke-width="0.5pt" />
<circle cx="43.125" cy="214.688" r="1.000" fill="#000000" stroke="none" stroke-width="0.5pt" />
<circle cx="223.988" cy="18.633" r="1.000" fill="#000000" stroke="none" stroke-width="0.5pt" />
<circle cx="124.201" cy="63.703" r="1.000" fill="#000000" stroke="none" stroke-width="0.5pt" />
<circle cx="61.835" cy="113.280" r="1.000" fill="#000000" stroke="none" stroke-width="0.5pt" />
<circle cx="45.204" cy="169.617" r="1.000" fill="#000000" stroke="none" stroke-width="0.5pt" />
<circle cx="43.125" cy="214.688" r="1.000" fill="#000000" stroke="none" stroke-width="0.5pt" />
<circle cx="223.988" cy="18.633" r="1.000" fill="#000000" stroke="none" stroke-width="0.5pt" />
<circle cx="186.133" cy="55.624" r="1.000" fill="#000000" stroke="none" stroke-width="0.5pt" />
<circle cx="114.629" cy="129.607" r="1.000" fill="#000000" stroke="none" stroke-width="0.5pt" />
<circle cx="51.537" cy="210.988" r="1.000" fill="#000000" stroke="none" stroke-width="0.5pt" />
<circle cx="43.125" cy="214.688" r="1.000" fill="#000000" stroke="none" stroke-width="0.5pt" />
<circle cx="223.988" cy="18.633" r="1.000" fill="#000000" stroke="none" stroke-width="0.5pt" />
<circle cx="196.858" cy="41.698" r="1.000" fill="#000000" stroke="none" stroke-width="0.5pt" />
<circle cx="79.297" cy="76.296" r="1.000" fill="#000000" stroke="none" stroke-width="0.5pt" />
<circle cx="43.125" cy="203.155" r="1.000" fill="#000000" stroke="none" stroke-width="0.5pt" />
<circle cx="43.125" cy="214.688" r="1.000" fill="#000000" stroke="none" stroke-width="0.5pt" />
<circle cx="223.988" cy="18.633" r="1.000" fill="#000000" stroke="none" stroke-width="0.5pt" />
<circle cx="185.231" cy="33.714" r="1.000" fill="#000000" stroke="none" stroke-width="0.5pt" />
<circle cx="107.719" cy="86.498" r="1.000" fill="#000000" stroke="none" stroke-width="0.5pt" />
<circle cx="43.125" cy="199.606" r="1.000" fill="#000000" stroke="none" stroke-width="0.5pt" />
<circle cx="43.125" cy="214.688" r="1.000" fill="#000000" stroke="none" stroke-width="0.5pt" />
<circle cx="223.988" cy="18.633" r="1.000" fill="#000000" stroke="none" stroke-width="0.5pt" />
<circle cx="203.199" cy="25.393" r="1.000" fill="#000000" stroke="none" stroke-width="0.5pt" />
<circle cx="115.886" cy="56.942" r="1.000" fill="#000000" stroke="none" stroke-width="0.5pt" />
<circle cx="47.283" cy="192.152" r="1.000" fill="#000000" stroke="none" stroke-width="0.5pt" />
<circle cx="43.125" cy="214.688" r="1.000" fill="#000000" stroke="none" stroke-width="0.5pt" />
<circle cx="223.988" cy="18.633" r="1.000" fill="#000000" stroke="none" stroke-width="0.5pt" />
<circle cx="133.556" cy="116.660" r="1.000" fill="#000000" stroke="none" stroke-width="0.5pt" />
<circle cx="43.125" cy="214.688" r="1.000" fill="#000000" stroke="none" stroke-width="0.5pt" />
<circle cx="223.988" cy="18.633" r="1.000" fill="#000000" stroke="none" stroke-width="0.5pt" />
<circle cx="223.988" cy="214.688" r="1.000" fill="#000000" stroke="none" stroke-width="0.5pt" />
<circle cx="43.125" cy="214.688" r="1.000" fill="#000000" stroke="none" stroke-width="0.5pt" />
<circle cx="223.988" cy="18.633" r="1.000" fill="#000000" stroke="none" stroke-width="0.5pt" />
<circle cx="154.769" cy="55.571" r="1.000" fill="#000000" stroke="none" stroke-width="0.5pt" />
<circle cx="107.878" cy="72.619" r="1.000" fill="#000000" stroke="none" stroke-width="0.5pt" />
<circle cx="72.152" cy="146.495" r="1.000" fill="#000000" stroke="none" stroke-width="0.5pt" />
<circle cx="43.125" cy="214.688" r="1.000" fill="#000000" stroke="none" stroke-width="0.5pt" />
<circle cx="223.988" cy="18.633" r="1.000" fill="#000000" stroke="none" stroke-width="0.5pt" />
<circle cx="200.650" cy="18.633" r="1.000" fill="#000000" stroke="none" stroke-width="0.5pt" />
<circle cx="101.468" cy="46.246" r="1.000" fill="#000000" stroke="none" stroke-width="0.5pt" />
<circle cx="54.794" cy="123.563" r="1.000" fill="#000000" stroke="none" stroke-width="0.5pt" />
<circle cx="43.125" cy="214.688" r="1.000" fill="#000000" stroke="none" stroke-width="0.5pt" />
<circle cx="223.988" cy="18.633" r="1.000" fill="#000000" stroke="none" stroke-width="0.5pt" />
<circle cx="133.556" cy="71.417" r="1.000" fill="#000000" stroke="none" stroke-width="0.5pt" />
<circle cx="68.245" cy="169.444" r="1.000" fill="#000000" stroke="none" stroke-width="0.5pt" />
<circle cx="43.125" cy="214.688" r="1.000" fill="#000000" stroke="none" stroke-width="0.5pt" />
<circle cx="223.988" cy="18.633" r="1.000" fill="#000000" stroke="none" stroke-width="0.5pt" />
<circle cx="121.499" cy="74.648" r="1.000" fill="#000000" stroke="none" stroke-width="0.5pt" />
<circle cx="43.125" cy="214.688" r="1.000" fill="#000000" stroke="none" stroke-width="0.5pt" />
<circle cx="223.988" cy="18.633" r="1.000" fill="#000000" stroke="none" stroke-width="0.5pt" />
<circle cx="181.432" cy="46.641" r="1.000" fill="#000000" stroke="none" stroke-width="0.5pt" />
<circle cx="101.639" cy="107.324" r="1.000" fill="#000000" stroke="none" stroke-width="0.5pt" />
<circle cx="59.083" cy="200.684" r="1.000" fill="#000000" stroke="none" stroke-width="0.5pt" />
<circle cx="43.125" cy="214.688" r="1.000" fill="#000000" stroke="none" stroke-width="0.5pt" />
<circle cx="223.988" cy="18.633" r="1.000" fill="#000000" stroke="none" stroke-width="0.5pt" />
<circle cx="133.556" cy="141.167" r="1.000" fill="#000000" stroke="none" stroke-width="0.5pt" />
<circle cx="43.125" cy="214.688" r="1.000" fill="#000000" stroke="none" stroke-width="0.5pt" />
<circle cx="223.988" cy="18.633" r="1.000" fill="#000000" stroke="none" stroke-width="0.5pt" />
<circle cx="140.016" cy="63.562" r="1.000" fill="#000000" stroke="none" stroke-width="0.5pt" />
<circle cx="43.125" cy="214.688" r="1.000" fill="#000000" stroke="none" stroke-width="0.5pt" />
<circle cx="223.988" cy="18.633" r="1.000" fill="#000000" stroke="none" stroke-width="0.5pt" />
<circle cx="215.949" cy="27.157" r="1.000" fill="#000000" stroke="none" stroke-width="0.5pt" />
<circle cx="115.470" cy="74.040" r="1.000" fill="#000000" stroke="none" stroke-width="0.5pt" />
<circle cx="43.125" cy="180.591" r="1.000" fill="#000000" stroke="none" stroke-width="0.5pt" />
<circle cx="43.125" cy="214.688" r="1.000" fill="#000000" stroke="none" stroke-width="0.5pt" />
<circle cx="223.988" cy="18.633" r="1.000" fill="#000000" stroke="none" stroke-width="0.5pt" />
<circle cx="167.615" cy="68.378" r="1.000" fill="#000000" stroke="none" stroke-width="0.5pt" />
<circle cx="50.172" cy="205.909" r="1.000" fill="#000000" stroke="none" stroke-width="0.5pt" />
<circle cx="43.125" cy="214.688" r="1.000" fill="#000000" stroke="none" stroke-width="0.5pt" />
<circle cx="223.988" cy="18.633" r="1.000" fill="#000000" stroke="none" stroke-width="0.5pt" />
<circle cx="105.873" cy="81.203" r="1.000" fill="#000000" stroke="none" stroke-width="0.5pt" />
<circle cx="105.873" cy="85.375" r="1.000" fill="#000000" stroke="none" stroke-width="0.5pt" />
<circle cx="43.125" cy="214.688" r="1.000" fill="#000000" stroke="none" stroke-width="0.5pt" />
<circle cx="223.988" cy="18.633" r="1.000" fill="#000000" stroke="none" stroke-width="0.5pt" />
<circle cx="119.644" cy="60.645" r="1.000" fill="#000000" stroke="none" stroke-width="0.5pt" />
<circle cx="98.775" cy="88.652" r="1.000" fill="#000000" stroke="none" stroke-width="0.5pt" />
<circle cx="43.125" cy="207.686" r="1.000" fill="#000000" stroke="none" stroke-width="0.5pt" />
<circle cx="43.125" cy="214.688" r="1.000" fill="#000000" stroke="none" stroke-width="0.5pt" />
<circle cx="223.988" cy="18.633" r="1.000" fill="#000000" stroke="none" stroke-width="0.5pt" />
<circle cx="178.772" cy="27.969" r="1.000" fill="#000000" stroke="none" stroke-width="0.5pt" />
<circle cx="110.948" cy="46.641" r="1.000" fill="#000000" stroke="none" stroke-width="0.5pt" />
<circle cx="77.037" cy="102.656" r="1.000" fill="#000000" stroke="none" stroke-width="0.5pt" />
<circle cx="43.125" cy="214.688" r="1.000" fill="#000000" stroke="none" stroke-width="0.5pt" />
<circle cx="223.988" cy="18.633" r="1.000" fill="#000000" stroke="none" stroke-width="0.5pt" />
<circle cx="114.374" cy="119.822" r="1.000" fill="#000000" stroke="none" stroke-width="0.5pt" />
<circle cx="43.125" cy="214.688" r="1.000" fill="#000000" stroke="none" stroke-width="0.5pt" />
<circle cx="223.988" cy="18.633" r="1.000" fill="#000000" stroke="none" stroke-width="0.5pt" />
<circle cx="178.772" cy="43.140" r="1.000" fill="#000000" stroke="none" stroke-width="0.5pt" />
<circle cx="110.948" cy="92.153" r="1.000" fill="#000000" stroke="none" stroke-width="0.5pt" />
<circle cx="65.733" cy="190.181" r="1.000" fill="#000000" stroke="none" stroke-width="0.5pt" />
<circle cx="43.125" cy="214.688" r="1.000" fill="#000000" stroke="none" stroke-width="0.5pt" />
<circle cx="223.988" cy="18.633" r="1.000" fill="#000000" stroke="none" stroke-width="0.5pt" />
<circle cx="192.804" cy="25.393" r="1.000" fill="#000000" stroke="none" stroke-width="0.5pt" />
<circle cx="120.044" cy="72.717" r="1.000" fill="#000000" stroke="none" stroke-width="0.5pt" />
<circle cx="88.860" cy="147.082" r="1.000" fill="#000000" stroke="none" stroke-width="0.5pt" />
<circle cx="43.125" cy="214.688" r="1.000" fill="#000000" stroke="none" stroke-width="0.5pt" />
<circle cx="223.988" cy="18.633" r="1.000" fill="#000000" stroke="none" stroke-width="0.5pt" />
<circle cx="216.605" cy="18.633" r="1.000" fill="#000000" stroke="none" stroke-width="0.5pt" />
<circle cx="83.727" cy="81.014" r="1.000" fill="#000000" stroke="none" stroke-width="0.5pt" />
<circle cx="43.125" cy="201.320" r="1.000" fill="#000000" stroke="none" stroke-width="0.5pt" />
<circle cx="43.125" cy="214.688" r="1.000" fill="#000000" stroke="none" stroke-width="0.5pt" />
<circle cx="223.988" cy="18.633" r="1.000" fill="#000000" stroke="none" stroke-width="0.5pt" />
<circle cx="112.278" cy="74.648" r="1.000" fill="#000000" stroke="none" stroke-width="0.5pt" />
<circle cx="43.125" cy="214.688" r="1.000" fill="#000000" stroke="none" stroke-width="0.5pt" />
<circle cx="223.988" cy="18.633" r="1.000" fill="#000000" stroke="none" stroke-width="0.5pt" />
<circle cx="168.338" cy="32.637" r="1.000" fill="#000000" stroke="none" stroke-width="0.5pt" />
<circle cx="131.237" cy="65.313" r="1.000" fill="#000000" stroke="none" stroke-width="0.5pt" />
<circle cx="70.950" cy="144.668" r="1.000" fill="#000000" stroke="none" stroke-width="0.5pt" />
<circle cx="43.125" cy="214.688" r="1.000" fill="#000000" stroke="none" stroke-width="0.5pt" />
<circle cx="223.988" cy="18.633" r="1.000" fill="#000000" stroke="none" stroke-width="0.5pt" />
<circle cx="221.727" cy="18.633" r="1.000" fill="#000000" stroke="none" stroke-width="0.5pt" />
<circle cx="99.645" cy="58.849" r="1.000" fill="#000000" stroke="none" stroke-width="0.5pt" />
<circle cx="43.125" cy="214.688" r="1.000" fill="#000000" stroke="none" stroke-width="0.5pt" />
<circle cx="223.988" cy="18.633" r="1.000" fill="#000000" stroke="none" stroke-width="0.5pt" />
<circle cx="115.470" cy="18.633" r="1.000" fill="#000000" stroke="none" stroke-width="0.5pt" />
<circle cx="43.125" cy="149.336" r="1.000" fill="#000000" stroke="none" stroke-width="0.5pt" />
<circle cx="43.125" cy="214.688" r="1.000" fill="#000000" stroke="none" stroke-width="0.5pt" />
<circle cx="223.988" cy="18.633" r="1.000" fill="#000000" stroke="none" stroke-width="0.5pt" />
<circle cx="168.338" cy="34.971" r="1.000" fill="#000000" stroke="none" stroke-width="0.5pt" />
<circle cx="112.687" cy="116.660" r="1.000" fill="#000000" stroke="none" stroke-width="0.5pt" />
<circle cx="70.950" cy="182.012" r="1.000" fill="#000000" stroke="none" stroke-width="0.5pt" />
<circle cx="43.125" cy="214.688" r="1.000" fill="#000000" stroke="none" stroke-width="0.5pt" />
<circle cx="223.988" cy="18.633" r="1.000" fill="#000000" stroke="none" stroke-width="0.5pt" />
<circle cx="92.451" cy="59.907" r="1.000" fill="#000000" stroke="none" stroke-width="0.5pt" />
<circle cx="43.125" cy="214.688" r="1.000" fill="#000000" stroke="none" stroke-width="0.5pt" />
<circle cx="223.988" cy="18.633" r="1.000" fill="#000000" stroke="none" stroke-width="0.5pt" />
<circle cx="124.201" cy="75.815" r="1.000" fill="#000000" stroke="none" stroke-width="0.5pt" />
<circle cx="74.308" cy="173.843" r="1.000" fill="#000000" stroke="none" stroke-width="0.5pt" />
<circle cx="43.125" cy="214.688" r="1.000" fill="#000000" stroke="none" stroke-width="0.5pt" />
<circle cx="223.988" cy="18.633" r="1.000" fill="#000000" stroke="none" stroke-width="0.5pt" />
<circle cx="91.819" cy="37.606" r="1.000" fill="#000000" stroke="none" stroke-width="0.5pt" />
<circle cx="50.081" cy="62.903" r="1.000" fill="#000000" stroke="none" stroke-width="0.5pt" />
<circle cx="43.125" cy="107.174" r="1.000" fill="#000000" stroke="none" stroke-width="0.5pt" />
<circle cx="43.125" cy="214.688" r="1.000" fill="#000000" stroke="none" stroke-width="0.5pt" />
<circle cx="223.988" cy="18.633" r="1.000" fill="#000000" stroke="none" stroke-width="0.5pt" />
<circle cx="161.621" cy="38.914" r="1.000" fill="#000000" stroke="none" stroke-width="0.5pt" />
<circle cx="117.965" cy="61.449" r="1.000" fill="#000000" stroke="none" stroke-width="0.5pt" />
<circle cx="88.860" cy="97.505" r="1.000" fill="#000000" stroke="none" stroke-width="0.5pt" />
<circle cx="43.125" cy="214.688" r="1.000" fill="#000000" stroke="none" stroke-width="0.5pt" />
<circle cx="223.988" cy="18.633" r="1.000" fill="#000000" stroke="none" stroke-width="0.5pt" />
<circle cx="176.806" cy="122.426" r="1.000" fill="#000000" stroke="none" stroke-width="0.5pt" />
<circle cx="43.125" cy="214.688" r="1.000" fill="#000000" stroke="none" stroke-width="0.5pt" />
<circle cx="223.988" cy="18.633" r="1.000" fill="#000000" stroke="none" stroke-width="0.5pt" />
<circle cx="192.533" cy="70.226" r="1.000" fill="#000000" stroke="none" stroke-width="0.5pt" />
<circle cx="43.125" cy="214.688" r="1.000" fill="#000000" stroke="none" stroke-width="0.5pt" />
</g>
</g>
<g id="ID000003" clip-path="url(#ID000001)" >
<g>
<circle cx="223.988" cy="18.633" r="1.000" fill="#0000ff" stroke="none" stroke-width="0.5pt" />
<circle cx="53.519" cy="56.942" r="1.000" fill="#0000ff" stroke="none" stroke-width="0.5pt" />
<circle cx="43.125" cy="214.688" r="1.000" fill="#0000ff" stroke="none" stroke-width="0.5pt" />
<circle cx="223.988" cy="18.633" r="1.000" fill="#0000ff" stroke="none" stroke-width="0.5pt" />
<circle cx="53.519" cy="65.956" r="1.000" fill="#0000ff" stroke="none" stroke-width="0.5pt" />
<circle cx="43.125" cy="214.688" r="1.000" fill="#0000ff" stroke="none" stroke-width="0.5pt" />
<circle cx="223.988" cy="18.633" r="1.000" fill="#0000ff" stroke="none" stroke-width="0.5pt" />
<circle cx="51.441" cy="106.519" r="1.000" fill="#0000ff" stroke="none" stroke-width="0.5pt" />
<circle cx="43.125" cy="214.688" r="1.000" fill="#0000ff" stroke="none" stroke-width="0.5pt" />
<circle cx="223.988" cy="18.633" r="1.000" fill="#0000ff" stroke="none" stroke-width="0.5pt" />
<circle cx="47.283" cy="140.322" r="1.000" fill="#0000ff" stroke="none" stroke-width="0.5pt" />
<circle cx="43.125" cy="214.688" r="1.000" fill="#0000ff" stroke="none" stroke-width="0.5pt" />
<circle cx="223.988" cy="18.633" r="1.000" fill="#0000ff" stroke="none" stroke-width="0.5pt" />
<circle cx="49.362" cy="86.238" r="1.000" fill="#0000ff" stroke="none" stroke-width="0.5pt" />
<circle cx="43.125" cy="214.688" r="1.000" fill="#0000ff" stroke="none" stroke-width="0.5pt" />
<circle cx="223.988" cy="18.633" r="1.000" fill="#0000ff" stroke="none" stroke-width="0.5pt" />
<circle cx="78.466" cy="61.449" r="1.000" fill="#0000ff" stroke="none" stroke-width="0.5pt" />
<circle cx="43.125" cy="214.688" r="1.000" fill="#0000ff" stroke="none" stroke-width="0.5pt" />
<circle cx="223.988" cy="18.633" r="1.000" fill="#0000ff" stroke="none" stroke-width="0.5pt" />
<circle cx="49.362" cy="92.998" r="1.000" fill="#0000ff" stroke="none" stroke-width="0.5pt" />
<circle cx="43.125" cy="214.688" r="1.000" fill="#0000ff" stroke="none" stroke-width="0.5pt" />
</g>
</g>
<g id="ID000004" clip-path="url(#ID000001)" >
      <polyline fill="none" stroke="#0000ff" stroke-width="0.5pt" stroke-dasharray="none" points="223.988,18.633 59.756,41.168 59.756,43.421 59.756,45.675 57.677,45.675 57.677,47.928 55.598,47.928 55.598,50.182 53.519,50.182 53.519,52.435 53.519,54.689 53.519,56.942 53.519,59.196 53.519,61.449 51.441,61.449 51.441,63.703 51.441,65.956 51.441,68.210 51.441,70.463 49.362,70.463 49.362,72.717 49.362,74.970 49.362,77.224 49.362,79.477 49.362,81.731 49.362,83.984 49.362,86.238 49.362,88.491 49.362,90.745 49.362,92.998 49.362,95.252 49.362,97.505 47.283,97.505 47.283,99.759 47.283,102.012 47.283,104.266 47.283,106.519 47.283,108.773 47.283,111.026 47.283,113.280 47.283,115.533 47.283,117.787 47.283,120.040 47.283,122.294 47.283,124.547 47.283,126.801 47.283,129.054 47.283,131.308 47.283,133.561 47.283,135.815 47.283,138.068 47.283,140.322 47.283,142.575 47.283,144.829 47.283,147.082 47.283,149.336 47.283,151.589 47.283,153.843 47.283,156.096 45.204,156.096 45.204,158.350 45.204,160.603 45.204,162.857 45.204,165.110 45.204,167.364 45.204,169.617 45.204,171.871 45.204,174.124 45.204,176.378 43.125,176.378 43.125,178.631 43.125,180.885 43.125,183.138 43.125,185.392 43.125,187.645 43.125,189.899 43.125,192.152 43.125,194.406 43.125,196.659 43.125,198.913 43.125,201.166 43.125,203.420 43.125,205.673 43.125,207.927 43.125,210.180 43.125,212.434 43.125,214.688 "/>
<g>
</g>
</g>
<g id="ID000005" clip-path="url(#ID000001)" >
      <polyline fill="none" stroke="#0000ff" stroke-width="0.5pt" stroke-dasharray="none" points="223.988,18.633 101.334,47.928 93.018,50.182 82.624,54.689 78.466,61.449 72.229,68.210 63.914,77.224 61.835,86.238 57.677,97.505 55.598,108.773 55.598,120.040 55.598,133.561 49.362,140.322 49.362,151.589 47.283,153.843 45.204,156.096 45.204,167.364 45.204,174.124 45.204,176.378 45.204,185.392 45.204,187.645 45.204,192.152 43.125,196.659 43.125,198.913 43.125,203.420 43.125,207.927 43.125,210.180 43.125,212.434 43.125,214.688 "/>
<g>
</g>
</g>
<g id="ID000006" clip-path="url(#ID000001)" >
      <polyline fill="none" stroke="#000000" stroke-width="0.5pt" stroke-dasharray="none" points="43.125,214.688 223.988,18.633 "/>
<g>
</g>
</g>
<g id="ID000007" >
  <g transform="translate(132.619,243.809)">
    <g transform="rotate(-0.0)">
      <text x="0.000" y="0.000" font-family="Sans" text-anchor="middle" font-size="8pt" fill="#000000" >1-specificity</text>
    </g>
  </g>
</g>
<g id="ID000008" >
  <g transform="translate(15.245,117.598)">
    <g transform="rotate(-90.0)">
      <text x="0.000" y="0.000" font-family="Sans" text-anchor="middle" font-size="8pt" fill="#000000" >sensitivity</text>
    </g>
  </g>
</g>
<g id="ID000009" >
</g>
    </g>
    <g>
      <polyline fill="none" stroke="#000000" stroke-width="0.5pt" stroke-dasharray="none" points="133.556,214.688 133.556,212.727 "/>
      <polyline fill="none" stroke="#000000" stroke-width="0.5pt" stroke-dasharray="none" points="43.125,214.688 223.988,214.688 "/>
      <polyline fill="none" stroke="#000000" stroke-width="0.5pt" stroke-dasharray="none" points="133.556,18.633 133.556,20.593 "/>
      <polyline fill="none" stroke="#000000" stroke-width="0.5pt" stroke-dasharray="none" points="43.125,18.633 223.988,18.633 "/>
  <g transform="translate(43.125,228.565)">
    <g transform="rotate(-0.0)">
      <text x="0.000" y="0.000" font-family="Sans" text-anchor="middle" font-size="8pt" fill="#000000" >0</text>
    </g>
  </g>
  <g transform="translate(133.556,228.565)">
    <g transform="rotate(-0.0)">
      <text x="0.000" y="0.000" font-family="Sans" text-anchor="middle" font-size="8pt" fill="#000000" >0.5</text>
    </g>
  </g>
  <g transform="translate(223.988,228.565)">
    <g transform="rotate(-0.0)">
      <text x="0.000" y="0.000" font-family="Sans" text-anchor="middle" font-size="8pt" fill="#000000" >1</text>
    </g>
  </g>
      <polyline fill="none" stroke="#000000" stroke-width="0.5pt" stroke-dasharray="none" points="43.125,175.477 45.086,175.477 "/>
      <polyline fill="none" stroke="#000000" stroke-width="0.5pt" stroke-dasharray="none" points="43.125,136.266 45.086,136.266 "/>
      <polyline fill="none" stroke="#000000" stroke-width="0.5pt" stroke-dasharray="none" points="43.125,97.055 45.086,97.055 "/>
      <polyline fill="none" stroke="#000000" stroke-width="0.5pt" stroke-dasharray="none" points="43.125,57.844 45.086,57.844 "/>
      <polyline fill="none" stroke="#000000" stroke-width="0.5pt" stroke-dasharray="none" points="43.125,214.688 43.125,18.633 "/>
      <polyline fill="none" stroke="#000000" stroke-width="0.5pt" stroke-dasharray="none" points="223.988,175.477 222.027,175.477 "/>
      <polyline fill="none" stroke="#000000" stroke-width="0.5pt" stroke-dasharray="none" points="223.988,136.266 222.027,136.266 "/>
      <polyline fill="none" stroke="#000000" stroke-width="0.5pt" stroke-dasharray="none" points="223.988,97.055 222.027,97.055 "/>
      <polyline fill="none" stroke="#000000" stroke-width="0.5pt" stroke-dasharray="none" points="223.988,57.844 222.027,57.844 "/>
      <polyline fill="none" stroke="#000000" stroke-width="0.5pt" stroke-dasharray="none" points="223.988,214.688 223.988,18.633 "/>
  <g transform="translate(39.508,218.484)">
    <g transform="rotate(-0.0)">
      <text x="0.000" y="0.000" font-family="Sans" text-anchor="end" font-size="8pt" fill="#000000" >0</text>
    </g>
  </g>
  <g transform="translate(39.508,179.273)">
    <g transform="rotate(-0.0)">
      <text x="0.000" y="0.000" font-family="Sans" text-anchor="end" font-size="8pt" fill="#000000" >0.2</text>
    </g>
  </g>
  <g transform="translate(39.508,140.063)">
    <g transform="rotate(-0.0)">
      <text x="0.000" y="0.000" font-family="Sans" text-anchor="end" font-size="8pt" fill="#000000" >0.4</text>
    </g>
  </g>
  <g transform="translate(39.508,100.852)">
    <g transform="rotate(-0.0)">
      <text x="0.000" y="0.000" font-family="Sans" text-anchor="end" font-size="8pt" fill="#000000" >0.6</text>
    </g>
  </g>
  <g transform="translate(39.508,61.641)">
    <g transform="rotate(-0.0)">
      <text x="0.000" y="0.000" font-family="Sans" text-anchor="end" font-size="8pt" fill="#000000" >0.8</text>
    </g>
  </g>
  <g transform="translate(39.508,22.430)">
    <g transform="rotate(-0.0)">
      <text x="0.000" y="0.000" font-family="Sans" text-anchor="end" font-size="8pt" fill="#000000" >1</text>
    </g>
  </g>
      <polyline fill="none" stroke="#000000" stroke-width="0.5pt" stroke-dasharray="none" points="43.125,214.688 43.125,212.727 "/>
      <polyline fill="none" stroke="#000000" stroke-width="0.5pt" stroke-dasharray="none" points="43.125,214.688 43.125,214.687 "/>
    </g>
  </g>
  </g>
</svg>
